<svg width="269" height="175" viewBox="0 0 269 175" fill="none" xmlns="http://www.w3.org/2000/svg">
<g id="Group">
<path id="Vector" d="M104.757 2.80001C102.89 6.13334 105.824 11.6 109.424 11.6C113.024 11.6 115.957 6.13334 114.09 2.80001C113.29 1.20001 112.09 5.49853e-06 111.424 5.49853e-06C109.424 5.49853e-06 109.824 2.26667 111.957 3.06667C115.024 4.26667 113.024 8.93334 109.424 8.93334C105.824 8.93334 103.824 4.26667 106.89 3.06667C109.024 2.26667 109.424 5.49853e-06 107.424 5.49853e-06C106.757 5.49853e-06 105.557 1.20001 104.757 2.80001Z" fill="#1D84D8"/>
<path id="mountain" d="M156.09 20.5333C154.357 22.2667 152.224 26.2667 151.29 29.4667C150.357 32.6667 149.024 35.7333 148.357 36.1333C147.69 36.5333 147.157 37.4667 147.157 38.1333C146.757 42.6667 145.69 44 143.824 42.5333C142.757 41.6 142.224 40.1333 142.624 39.2C143.024 38.1333 142.624 37.7333 141.424 38.2667C140.357 38.6667 139.157 38 138.624 36.9333C138.224 35.8667 136.89 35.2 135.557 35.6C132.357 36.4 127.024 43.6 128.224 45.6C128.89 46.5333 128.624 46.6667 127.424 46C126.09 45.2 125.824 45.6 126.357 47.7333C126.89 49.3333 126.624 50.4 125.957 49.8667C125.29 49.4667 124.757 50 124.757 50.9333C124.757 52 123.824 54 122.624 55.4667C121.557 56.8 120.89 57.3333 121.29 56.5333C121.69 55.7333 120.624 54.2667 118.89 53.3333C116.224 52 115.157 52.1333 112.357 54C108.757 56.4 106.624 55.8667 103.69 51.7333C102.757 50.4 101.024 49.3333 99.9571 49.3333C97.4238 49.3333 89.6904 53.2 88.4904 55.2C87.9571 56 87.4238 56.2667 87.4238 55.7333C87.4238 55.2 84.8904 55.6 81.9571 56.6667C74.6238 59.3333 73.2904 59.2 70.2238 55.7333C67.6904 53.2 67.1571 53.0667 64.0904 54.6667C62.3571 55.6 61.1571 56.8 61.4238 57.4667C61.8238 58 61.4238 58.6667 60.6238 58.9333C59.2904 59.3333 58.6238 69.7333 59.6904 75.3333C60.6238 80 67.1571 93.3333 68.6238 93.3333C69.4238 93.3333 69.5571 94.2667 69.1571 95.6C68.6238 97.0667 68.7571 97.4667 69.8238 96.8C70.7571 96.2667 71.4238 96.4 71.4238 96.9333C71.4238 99.6 78.8904 106.933 85.2904 110.533C96.4904 116.933 105.957 120.133 115.557 120.533C125.557 121.067 139.69 118.533 146.49 115.2C151.957 112.4 161.824 104.533 166.09 99.4667C167.957 97.2 170.624 94.2667 172.09 92.9333C173.557 91.4667 173.957 90.6667 173.157 91.2C171.957 91.8667 171.69 91.4667 172.224 90.1333C172.624 88.9333 173.424 88.2667 173.957 88.6667C174.49 88.9333 175.024 88.5333 175.157 87.6C175.29 86.6667 176.89 81.6 178.757 76.1333C180.624 70.8 182.09 64.4 182.09 62.1333C182.09 56.5333 178.89 46.2667 177.024 45.6C176.09 45.3333 175.424 43.7333 175.424 42C175.424 40.4 174.49 38.2667 173.424 37.3333C172.357 36.4 171.69 35.2 172.09 34.6667C173.157 32.9333 166.49 19.0667 164.09 18.1333C160.624 16.8 159.557 17.2 156.09 20.5333ZM163.424 21.6C164.89 23.3333 165.69 25.6 165.29 26.9333C164.89 28.2667 165.824 30 167.69 31.2C170.624 33.3333 170.624 33.3333 168.09 35.3333C165.557 37.2 165.557 37.3333 169.824 38.9333C174.757 40.8 175.157 42.1333 171.424 43.3333C167.557 44.5333 168.09 46.2667 172.757 47.3333C177.29 48.2667 177.824 49.8667 174.49 52C172.357 53.2 172.49 53.3333 175.157 52.6667C177.824 51.8667 178.09 52.2667 178.09 57.7333C178.09 84 162.09 106.133 137.024 114.533C111.824 123.067 82.3571 111.467 68.7571 87.7333C63.6904 78.6667 61.1571 68.1333 63.1571 63.0667C63.8238 61.0667 64.8904 58.1333 65.2904 56.8C66.4904 53.4667 68.6238 55.6 69.0238 60.4C69.4238 64.4 71.6904 64.9333 76.7571 62C78.6238 60.9333 81.8238 60.1333 83.8238 60C85.9571 60 90.2238 58.1333 93.4238 56C100.49 51.0667 101.824 51.0667 102.89 55.3333C103.824 58.9333 108.09 62.6667 111.29 62.6667C112.357 62.6667 112.89 62.2667 112.357 61.8667C111.424 60.8 114.09 53.3333 115.424 53.3333C116.757 53.3333 118.224 56.9333 118.89 61.8667C119.557 66.8 119.557 66.8 123.29 65.7333C126.357 64.9333 126.357 64.8 124.09 63.2C121.824 61.4667 121.957 61.3333 126.09 60.5333C130.224 59.6 130.357 59.4667 127.957 57.7333C125.557 55.8667 125.557 55.7333 128.624 53.4667C131.024 51.6 131.29 50.8 129.957 50.4C128.49 49.8667 128.624 49.2 130.49 46.9333C131.957 45.4667 132.757 43.7333 132.357 43.0667C131.957 42.4 132.49 40.8 133.557 39.4667C135.29 37.0667 135.557 36.9333 137.957 39.2C139.29 40.4 140.224 42.5333 139.824 43.8667C139.424 45.3333 140.09 46.6667 141.69 47.2C143.957 48.1333 143.957 48.2667 141.69 50C139.29 51.7333 139.424 51.8667 143.024 53.7333C146.224 55.4667 146.357 55.8667 144.49 56.6667C143.157 57.2 142.09 58.1333 142.09 58.8C142.09 60.6667 145.824 60.2667 150.49 57.8667L154.624 55.6L150.09 53.4667C145.69 51.3333 143.157 48 145.957 48C146.624 48 148.89 47.3333 151.024 46.5333C154.757 45.0667 154.757 45.0667 151.824 43.8667C147.69 42.2667 147.957 40.6667 152.89 38.6667C156.624 37.0667 156.757 36.8 154.49 35.6C150.757 33.6 150.757 33.4667 153.957 31.2C155.824 29.8667 156.624 28.2667 156.09 26.6667C155.69 25.2 156.09 24 157.424 23.4667C158.49 23.0667 159.424 21.8667 159.424 20.6667C159.424 17.8667 160.624 18.1333 163.424 21.6Z" fill="#1D84D8"/>
<path id="small_tent" d="M149.29 72.6667C148.757 74.1333 146.89 77.3333 145.157 79.6L141.957 84H145.29C147.557 84 148.89 83.0667 149.557 80.9333L150.49 78L151.824 80.9333C152.624 82.6667 154.224 84 155.69 84C158.224 84 158.89 82 156.757 80.6667C155.957 80.2667 154.224 77.6 152.89 74.9333C150.624 70.5333 150.224 70.2667 149.29 72.6667Z" fill="#1D84D8"/>
<path id="big_tent" d="M104.224 84C102.09 88.4 98.0904 94.6667 95.2904 97.8667L90.0904 103.733L96.8904 103.6C103.557 103.333 103.69 103.2 105.557 98C106.49 95.0667 107.024 91.4667 106.624 90C106.224 88.5334 107.424 90 109.29 93.2C111.157 96.2667 112.757 100 112.757 101.2C112.757 103.067 114.09 103.467 119.824 103.6L126.757 103.733L121.957 98.6667C119.157 95.7334 115.024 89.6 112.624 84.6667C110.357 79.8667 108.357 76 108.224 76C108.224 76 106.357 79.6 104.224 84Z" fill="#1D84D8"/>
<path id="Vector_2" d="M135.29 96.9333C135.157 97.4667 134.89 99.3333 134.757 100.8C134.624 102.4 134.09 104.267 133.557 105.2C132.89 106.133 133.824 106.667 136.09 106.667C139.024 106.667 139.29 106.267 138.09 104.133C137.424 102.667 137.157 100.667 137.557 99.6C137.957 98.5333 137.69 97.2 136.89 96.6667C136.09 96.2667 135.29 96.2667 135.29 96.9333Z" fill="#1D84D8"/>
<g id="moon">
<path id="vector" d="M78.6238 14.6667C70.3571 18.2667 68.2238 23.2 70.3571 33.6C71.0238 36.6667 75.4238 41.3333 77.6904 41.3333C78.6238 41.3333 79.4238 41.8667 79.4238 42.4C79.4238 43.0667 81.2904 43.3333 83.4238 42.9333C88.4905 42.2667 88.6238 40 83.5571 40C78.0904 40 72.7571 34.2667 72.7571 28.4C72.7571 22.6667 78.8904 16 83.9571 16C85.8238 16 87.4238 15.4667 87.4238 14.8C87.4238 12.4 83.9571 12.4 78.6238 14.6667Z" fill="#1D84D8"/>
<path id="Vector_3" d="M82.8904 20.8C77.6904 25.8667 79.2904 34.5334 86.0904 38L90.2238 40.1334L86.6238 34.6667C83.0238 29.3334 83.0238 29.0667 85.1571 24.5334C86.4904 22 87.4238 19.6 87.4238 19.3334C87.4238 18 84.8904 18.8 82.8904 20.8Z" fill="#1D84D8"/>
</g>
<path id="Vector_4" d="M140.49 24C142.09 24.6667 143.424 26.4 143.424 27.8667C143.424 29.7333 142.757 30.4 141.424 29.8667C140.357 29.3333 139.424 29.7333 139.424 30.5333C139.424 32.9333 143.157 32.2667 144.624 29.6C146.357 26.4 144.09 22.6667 140.357 22.8H137.424L140.49 24Z" fill="#1D84D8"/>
<g id="tour_mate_text">
<path id="Vector_5" d="M45.2904 153.867C43.9571 157.333 45.4238 160.667 48.2238 161.067C51.4238 161.467 53.2904 158.4 52.0904 154.533C51.1571 151.6 46.3571 151.2 45.2904 153.867Z" fill="#1D84D8"/>
<path id="Vector_6" d="M7.69044 133.733C2.62378 135.333 -1.64289 141.733 0.623776 144.533C1.42378 145.467 1.82378 146.533 1.42378 146.933C1.02378 147.2 2.89044 149.2 5.42378 151.333C9.69044 154.533 10.2238 155.733 9.95711 160.533C9.42378 169.333 13.5571 174.667 20.3571 174.133C23.6904 173.867 30.0904 168.933 30.0904 166.667C30.0904 166 32.8904 167.333 36.4904 169.867C41.4238 173.333 43.8238 174.267 47.4238 173.867C54.7571 173.067 58.6238 172 61.0238 169.733C63.0238 168 63.5571 168 67.0238 170.667C70.7571 173.333 79.1571 174.133 95.4238 173.2C97.2904 173.2 100.624 173.333 102.757 173.733C109.024 174.667 113.824 168.133 112.624 160.533C112.49 160.133 113.957 158.133 115.824 156.267C120.49 151.467 121.29 146.667 118.49 143.067C116.357 140.4 114.89 140 106.757 140.133C101.69 140.133 94.2238 140 90.3571 140C86.3571 139.867 82.3571 140.533 81.2904 141.467C79.8238 142.667 78.8904 142.667 77.8238 141.6C75.6904 139.467 67.1571 139.6 64.2238 141.733C62.0904 143.333 61.0238 143.2 56.8904 141.067C53.5571 139.333 50.2238 138.667 45.6904 139.067C41.1571 139.467 39.0238 139.067 38.2238 137.733C35.5571 132.933 17.5571 130.533 7.69044 133.733ZM29.8238 138C33.6904 139.2 36.7571 140.533 36.7571 141.067C36.7571 141.6 35.5571 143.467 34.2238 145.2C32.2238 147.867 31.4238 148.133 29.0238 146.8C27.5571 146 25.8238 145.333 25.2904 145.333C24.7571 145.333 24.7571 150.667 25.1571 157.333L25.9571 169.333H19.9571H14.0904V157.333C14.0904 145.733 13.9571 145.333 11.5571 146.667C7.69044 148.667 6.62378 148.4 4.89044 144.533C3.02378 140.267 3.42378 139.733 10.4904 137.733C18.3571 135.6 21.9571 135.733 29.8238 138ZM55.8238 145.6C60.3571 148 61.9571 150.933 62.0904 156.933C62.0904 161.467 61.4238 163.067 57.9571 165.867C48.7571 173.733 34.0904 168 34.0904 156.667C34.0904 149.6 39.9571 144 47.4238 144C50.4904 144 54.2238 144.667 55.8238 145.6ZM77.0238 152.267C77.2904 158.667 77.9571 160.667 79.4238 160.667C80.8904 160.667 81.5571 158.667 81.8238 152.267L82.2238 144H87.4238H92.7571V156.667V169.333H88.0904C85.2904 169.333 83.4238 168.667 83.4238 167.733C83.4238 166.533 83.0238 166.533 81.8238 167.733C79.2904 170.267 72.4904 169.6 69.1571 166.4C66.4904 163.867 66.0904 162.267 66.0904 153.733V144H71.4238H76.6238L77.0238 152.267ZM107.424 145.6C107.424 146.8 107.824 146.8 109.024 145.6C109.957 144.667 111.69 144 113.024 144C114.89 144 115.424 145.067 115.424 148.667C115.424 152.8 115.024 153.333 112.09 153.333C108.49 153.333 108.224 154.133 108.757 163.6L109.024 169.333H103.557H98.0904V156.667V144H102.757C105.557 144 107.424 144.667 107.424 145.6Z" fill="#1D84D8"/>
<path id="Vector_7" d="M133.957 133.067C128.757 134.667 127.824 137.867 127.557 152.933C127.424 162.267 127.824 168.133 128.757 168.667C129.557 169.067 129.69 170.133 129.29 170.933C128.757 171.733 129.024 172 129.69 171.6C130.49 171.067 131.824 171.6 132.757 172.667C135.024 175.467 139.69 175.2 143.157 172C145.024 170.267 146.09 169.867 146.09 170.933C146.09 172.4 146.357 172.4 147.29 170.933C148.09 169.6 148.624 169.6 150.09 171.333C152.224 173.867 159.957 173.867 163.957 171.333C166.89 169.333 171.424 169.733 171.424 172C171.424 174.267 178.357 174.667 182.757 172.667C186.09 170.933 187.824 170.8 189.824 171.867C191.29 172.667 196.89 173.6 202.357 173.867C209.824 174.267 212.624 173.867 214.49 172.267C216.49 170.4 217.557 170.4 221.157 171.867C228.49 174.8 231.29 175.067 234.757 172.8C237.157 171.2 238.757 171.067 241.424 172C250.89 175.6 261.69 173.733 264.757 168C265.957 165.867 265.957 164.667 264.624 163.2C263.824 162.133 263.69 161.333 264.49 161.333C265.157 161.333 266.49 159.467 267.424 157.2C269.024 153.6 268.89 152.4 266.89 148.8C263.424 142.533 258.49 139.467 251.557 139.467C248.224 139.467 243.69 140.4 241.557 141.6C237.824 143.6 237.557 143.467 232.624 138.533C226.624 132.533 222.757 132 217.29 136.267C214.09 138.8 212.09 139.333 204.224 139.067C198.624 138.933 193.557 139.6 191.424 140.667C188.224 142.4 187.557 142.133 182.757 137.6L177.557 132.667H156.624C145.157 132.533 135.024 132.8 133.957 133.067ZM157.157 137.867C160.224 139.6 161.29 139.6 164.49 137.867C168.89 135.6 171.557 135.467 175.824 137.467C180.624 139.6 181.824 143.333 182.357 156.933L182.89 169.333H177.157H171.424V158C171.424 148.667 171.024 146.4 169.29 145.733C164.357 143.867 162.757 147.067 163.024 158.533L163.157 169.333H157.424H151.557L151.157 157.6C150.757 146.267 150.757 146 147.424 146C144.09 146 144.09 146.267 143.69 157.6L143.29 169.333H137.69H132.09V153.333V137.333H137.824C141.29 137.333 143.29 137.867 142.757 138.667C141.557 140.667 143.69 140.267 146.624 138C149.957 135.467 152.49 135.467 157.157 137.867ZM229.024 142C228.624 144.667 229.024 145.333 231.29 145.333C233.557 145.333 234.09 146.133 234.09 149.333C234.09 152.4 233.557 153.333 231.424 153.333C229.29 153.333 228.757 154.267 228.757 157.333C228.757 160.4 229.424 161.333 231.29 161.333C233.824 161.333 235.424 163.733 235.424 167.467C235.424 168.8 233.69 169.333 229.69 169.333C220.89 169.333 219.424 166.933 218.89 151.467L218.357 138.667H223.957C229.424 138.667 229.69 138.8 229.024 142ZM214.09 154.667C214.09 160.4 214.49 166 214.89 167.2C215.557 168.8 213.957 169.2 204.49 169.2C198.224 169.067 192.49 168.4 191.29 167.6C184.49 162.533 184.49 150.8 191.29 145.733C192.49 144.933 197.957 144.267 203.824 144.267H214.09V154.667ZM260.89 147.867C263.024 150 264.757 152.933 264.757 154.4C264.757 156.8 263.557 157.2 256.09 158C251.29 158.533 247.424 159.467 247.424 160C247.424 161.867 251.424 162.667 254.624 161.333C257.157 160.4 258.357 160.8 260.624 163.2L263.424 166.267L260.09 167.733C244.49 174.933 229.29 159.333 240.624 147.867C243.824 144.667 245.69 144 250.757 144C255.824 144 257.69 144.667 260.89 147.867Z" fill="#1D84D8"/>
<path id="Vector_8" d="M197.29 153.867C195.957 157.333 197.424 160.667 200.224 161.067C203.424 161.467 205.29 158.4 204.09 154.533C203.157 151.6 198.357 151.2 197.29 153.867Z" fill="#1D84D8"/>
<path id="Vector_9" d="M247.424 152.667C245.957 154.4 246.357 154.667 249.957 154.667C252.757 154.667 254.09 154 254.09 152.667C254.09 151.6 253.024 150.667 251.557 150.667C250.224 150.667 248.357 151.6 247.424 152.667Z" fill="#1D84D8"/>
</g>
</g>
</svg>
